<?xml version="1.0" standalone="no"?>
<!DOCTYPE svg PUBLIC "-//W3C//DTD SVG 20010904//EN"
 "http://www.w3.org/TR/2001/REC-SVG-20010904/DTD/svg10.dtd">
<svg version="1.0" xmlns="http://www.w3.org/2000/svg"
 width="1392.000000pt" height="1392.000000pt" viewBox="0 0 1392.000000 1392.000000"
 preserveAspectRatio="xMidYMid meet">
<metadata>
Created by potrace 1.11, written by Peter Selinger 2001-2013
</metadata>
<g transform="translate(0.000000,1392.000000) scale(0.100000,-0.100000)"
fill="#000000" stroke="none">
<path d="M7505 10818 c-11 -6 -37 -28 -57 -47 -68 -67 -83 -78 -183 -143 -137
-88 -378 -209 -525 -263 -135 -49 -252 -89 -292 -100 l-48 -12 33 61 c38 71
72 161 87 229 9 43 8 53 -10 83 -32 51 -99 56 -146 10 -6 -6 -23 -20 -39 -31
-15 -11 -49 -37 -76 -57 -27 -21 -53 -38 -58 -38 -5 0 -11 -3 -13 -8 -11 -25
-432 -257 -543 -299 -28 -11 -195 -78 -240 -98 -11 -4 -22 -9 -25 -10 -3 -1
-12 -4 -20 -8 -8 -3 -49 -17 -90 -32 -41 -15 -93 -34 -115 -42 -81 -30 -184
-60 -190 -55 -3 3 -5 0 -5 -6 0 -7 -6 -12 -13 -12 -38 0 -483 -152 -647 -222
-75 -31 -289 -138 -376 -187 l-70 -40 -64 91 c-199 281 -406 425 -675 468
-210 34 -422 -14 -543 -124 -66 -59 -155 -203 -168 -271 -2 -11 -6 -31 -9 -45
-26 -112 -26 -224 0 -362 7 -37 65 -200 76 -214 5 -6 7 -13 4 -16 -3 -3 1 -11
10 -18 8 -7 15 -18 15 -24 0 -17 74 -131 128 -196 48 -58 140 -149 180 -179
l24 -18 -63 -46 c-165 -119 -331 -295 -448 -477 -33 -52 -66 -101 -71 -107 -6
-7 -8 -13 -4 -13 4 0 0 -8 -9 -17 -8 -10 -19 -30 -22 -45 -4 -16 -11 -28 -16
-28 -5 0 -9 -4 -9 -9 0 -5 -12 -35 -27 -67 -15 -33 -28 -63 -29 -69 -1 -5 -14
-38 -27 -72 -14 -35 -23 -63 -20 -63 3 0 1 -6 -5 -13 -10 -11 -25 -64 -38
-136 -3 -13 -9 -32 -15 -43 -5 -10 -8 -18 -5 -18 3 0 0 -15 -5 -32 -5 -18 -12
-53 -15 -78 -3 -25 -8 -54 -10 -65 -29 -145 -25 -599 6 -706 5 -15 6 -29 4
-32 -3 -2 5 -44 16 -92 11 -49 22 -98 25 -109 2 -12 4 -21 6 -21 1 0 3 -9 5
-20 7 -48 78 -249 126 -356 19 -41 33 -83 32 -94 -1 -11 -5 -42 -9 -70 -4 -27
-9 -66 -11 -85 -2 -19 -6 -55 -9 -80 -15 -128 -22 -198 -27 -267 -2 -29 -5
-53 -8 -53 -3 0 -5 -19 -6 -43 -1 -44 -10 -176 -18 -262 -6 -61 -15 -183 -21
-290 -3 -44 -7 -120 -10 -170 -28 -449 -38 -1529 -21 -2150 4 -154 10 -338 12
-410 3 -125 6 -218 19 -570 11 -314 15 -423 20 -645 3 -124 7 -237 9 -253 2
-15 -1 -30 -6 -33 -4 -3 -5 -10 -1 -17 3 -6 7 -74 8 -151 1 -78 5 -149 10
-159 22 -50 -287 -47 4740 -47 l4677 0 29 29 c16 16 29 35 30 43 0 7 2 22 4
33 3 11 7 67 10 125 3 58 8 119 10 135 13 108 20 539 20 1170 0 654 -4 942
-20 1580 -3 105 -7 444 -10 755 -3 311 -7 603 -9 650 -3 47 -7 152 -10 234 -4
81 -9 152 -12 157 -3 5 0 9 7 9 8 0 8 4 1 13 -5 6 -10 39 -11 72 -3 71 -9 163
-15 225 -3 25 -7 84 -10 133 l-6 87 73 123 c40 67 83 145 96 172 13 28 35 71
48 98 13 26 21 47 17 47 -3 0 -2 6 4 13 14 16 103 279 97 285 -3 3 0 11 6 19
6 7 9 13 6 13 -3 0 -1 15 4 33 11 35 13 44 34 162 24 132 26 152 29 360 4 202
-5 339 -29 451 -3 12 -7 39 -11 60 -28 183 -142 480 -261 683 -123 208 -340
443 -529 573 l-51 34 18 25 c11 13 22 29 27 34 80 105 201 339 236 460 15 50
31 103 36 118 5 15 7 90 6 165 -3 112 -8 147 -25 191 -56 138 -102 202 -210
293 -53 45 -170 92 -261 106 -57 9 -201 8 -261 -1 -44 -7 -137 -31 -169 -44
-8 -4 -17 -7 -20 -8 -32 -8 -143 -76 -203 -124 -87 -69 -144 -128 -234 -243
-36 -46 -68 -86 -72 -91 -4 -4 -41 15 -83 42 -161 106 -320 196 -515 293 -112
55 -209 101 -216 102 -10 1 -108 39 -172 67 -27 11 -262 88 -283 93 -9 2 -24
6 -32 9 -8 3 -37 10 -65 16 -27 7 -61 14 -75 17 -14 3 -34 7 -45 9 -38 7 -68
14 -71 17 -1 2 12 27 30 56 19 29 44 84 56 123 22 66 22 73 7 104 -22 47 -72
62 -135 42 -41 -13 -230 -64 -264 -71 -7 -2 -20 -6 -28 -9 -8 -3 -60 -17 -115
-31 -55 -13 -120 -29 -145 -35 -25 -7 -58 -14 -73 -16 -15 -2 -45 -7 -65 -10
-21 -3 -49 -8 -62 -10 -14 -3 -55 -8 -92 -11 l-67 -5 36 53 c73 108 129 266
139 396 5 62 3 71 -18 95 -27 31 -74 43 -103 25z"/>
</g>
</svg>
